<svg width="27" height="27" viewBox="0 0 27 27" fill="white" xmlns="http://www.w3.org/2000/svg">
<path d="M13.6973 10.5508L9.54083 14.3364L12.2909 14.2215L14.2099 16.193L13.6973 10.5508Z" fill="white"/>
<path d="M17.6803 0.225855C19.3365 0.868897 20.1058 2.63035 19.5143 4.174C18.9227 5.71764 17.178 6.50243 15.5218 5.85939C13.8656 5.21635 13.0963 3.45749 13.6878 1.91125C14.2794 0.365008 16.0241 -0.417187 17.6803 0.225855ZM15.9356 4.77901C16.2768 4.91142 16.6492 4.93903 17.0059 4.85837C17.3626 4.7777 17.6875 4.59238 17.9396 4.32583C18.1917 4.05928 18.3596 3.72348 18.4221 3.36088C18.4846 2.99827 18.4388 2.62516 18.2907 2.28871C18.1426 1.95226 17.8986 1.66759 17.5898 1.47068C17.2809 1.27378 16.921 1.17348 16.5555 1.18248C16.19 1.19148 15.8354 1.30937 15.5365 1.52124C15.2376 1.73311 15.0078 2.02945 14.8761 2.37279C14.7877 2.60071 14.7449 2.84401 14.7503 3.08865C14.7558 3.3333 14.8093 3.57443 14.9078 3.79815C15.0063 4.02186 15.1478 4.22372 15.3243 4.39207C15.5007 4.56042 15.7085 4.69193 15.9356 4.77901Z" fill="white"/>
<path d="M24.9853 6.66846L25.8499 9.08073C26.268 10.2484 25.7992 11.2545 24.7165 11.6477C24.0983 11.8724 23.6149 11.7921 23.2895 11.6382C23.1037 11.5582 22.9363 11.4405 22.7976 11.2925L21.192 13.1507L20.7318 11.8672L22.1605 10.2484L21.7698 9.15938L19.9925 9.80502L19.5761 8.63475L24.9853 6.66846ZM23.2852 9.96837C23.3193 10.0664 23.3723 10.1567 23.4412 10.2339C23.5101 10.3112 23.5935 10.374 23.6867 10.4186C23.7798 10.4632 23.8808 10.4888 23.9838 10.4939C24.0869 10.499 24.1899 10.4834 24.2869 10.4482C24.3839 10.4129 24.4731 10.3587 24.5491 10.2886C24.6252 10.2184 24.6867 10.1338 24.7301 10.0396C24.7735 9.94539 24.7979 9.84346 24.8019 9.7397C24.8059 9.63594 24.7894 9.53241 24.7534 9.43509L24.3241 8.22507L22.8551 8.75834L23.2852 9.96837Z" fill="white"/>
<path d="M22.2695 19.5587L21.1533 21.582L19.2507 20.5154C19.0938 20.0662 19.035 19.5883 19.0782 19.1141C19.1215 18.6399 19.2658 18.1807 19.5014 17.7678C20.3651 16.2069 22.2051 15.6857 23.6415 16.4912C25.0779 17.2968 25.606 19.1455 24.7422 20.7064C24.5191 21.1169 24.2067 21.4712 23.8282 21.7429C23.4498 22.0145 23.0153 22.1965 22.5571 22.2752L22.2394 21.1516C22.4329 21.1184 22.6217 21.0621 22.8018 20.9839C23.1975 20.8165 23.5265 20.5212 23.7368 20.1447C23.8552 19.9312 23.9307 19.6963 23.9589 19.4534C23.9871 19.2106 23.9675 18.9645 23.9013 18.7293C23.835 18.494 23.7234 18.2742 23.5727 18.0824C23.4221 17.8906 23.2354 17.7306 23.0233 17.6114C22.8112 17.4922 22.5779 17.4162 22.3367 17.3878C22.0954 17.3594 21.851 17.3791 21.6173 17.4458C21.3836 17.5125 21.1653 17.6249 20.9747 17.7765C20.7842 17.9282 20.6252 18.1161 20.5068 18.3296C20.3367 18.6155 20.2437 18.9411 20.2372 19.2743C20.2313 19.4093 20.2452 19.5444 20.2784 19.6753L20.888 20.0211L21.4083 19.0816L22.2695 19.5587Z" fill="white"/>
<path d="M17.9293 26.5715L16.7693 26.9915L14.8195 21.5464L15.9794 21.1255L17.9293 26.5715Z" fill="white"/>
<path d="M7.45184 26.7695C5.79818 26.1204 5.03575 24.3555 5.63419 22.8179C6.23263 21.2803 7.97987 20.4981 9.63353 21.1481C11.2872 21.798 12.0496 23.5621 11.452 25.104C10.8545 26.6459 9.10549 27.4195 7.45184 26.7695ZM9.21539 22.2233C8.87479 22.0894 8.50241 22.0603 8.14536 22.1395C7.7883 22.2187 7.4626 22.4028 7.20945 22.6683C6.9563 22.9339 6.78707 23.2691 6.72317 23.6315C6.65926 23.9939 6.70354 24.3672 6.85042 24.7043C6.9973 25.0413 7.24017 25.327 7.54833 25.5251C7.85648 25.7232 8.21607 25.8248 8.58162 25.8172C8.94717 25.8096 9.30226 25.693 9.60198 25.4822C9.9017 25.2714 10.1326 24.9758 10.2655 24.6329C10.3545 24.4054 10.3979 24.1624 10.3933 23.9179C10.3886 23.6733 10.336 23.4322 10.2384 23.2082C10.1408 22.9842 10.0002 22.7819 9.82461 22.6129C9.64904 22.4439 9.442 22.3114 9.21539 22.2233Z" fill="white"/>
<path d="M10.3076 5.49199L9.14846 5.91204L7.20374 0.479022L8.3637 0.0581055L10.3076 5.49199Z" fill="white"/>
<path d="M2.88671 7.3469L4.00288 5.32356L5.90896 6.38839C6.06583 6.83759 6.12464 7.31557 6.08137 7.78973C6.03811 8.26389 5.89379 8.72308 5.65825 9.13601C4.79451 10.6969 2.95453 11.2181 1.51896 10.4126C0.0833902 9.60705 -0.446363 7.75831 0.417384 6.19737C0.640505 5.78694 0.952967 5.43262 1.33138 5.16096C1.70979 4.8893 2.14434 4.70732 2.60251 4.62866L2.92019 5.75226C2.72682 5.78565 2.53805 5.84193 2.35781 5.91993C1.96215 6.08731 1.63316 6.3826 1.4228 6.75917C1.1837 7.19046 1.12459 7.6997 1.25848 8.17487C1.39236 8.65003 1.70828 9.05219 2.13672 9.29288C2.56517 9.53357 3.07104 9.59307 3.54307 9.45829C4.01509 9.32352 4.4146 9.0055 4.6537 8.57421C4.82158 8.28856 4.913 7.96396 4.919 7.63212C4.92468 7.4969 4.91109 7.36156 4.87865 7.23022L4.26819 6.8845L3.74788 7.82832L2.88671 7.3469Z" fill="white"/>
</svg>
